<?xml version="1.0" encoding="utf-8" standalone="no"?>
<!DOCTYPE svg PUBLIC "-//W3C//DTD SVG 1.1//EN"
  "http://www.w3.org/Graphics/SVG/1.1/DTD/svg11.dtd">
<svg xmlns:xlink="http://www.w3.org/1999/xlink" width="555.895156pt" height="312.584187pt" viewBox="0 0 555.895156 312.584187" xmlns="http://www.w3.org/2000/svg" version="1.1">
 <metadata>
  <rdf:RDF xmlns:dc="http://purl.org/dc/elements/1.1/" xmlns:cc="http://creativecommons.org/ns#" xmlns:rdf="http://www.w3.org/1999/02/22-rdf-syntax-ns#">
   <cc:Work>
    <dc:type rdf:resource="http://purl.org/dc/dcmitype/StillImage"/>
    <dc:date>2026-04-27T03:13:27.236716</dc:date>
    <dc:format>image/svg+xml</dc:format>
    <dc:creator>
     <cc:Agent>
      <dc:title>Matplotlib v3.10.0, https://matplotlib.org/</dc:title>
     </cc:Agent>
    </dc:creator>
   </cc:Work>
  </rdf:RDF>
 </metadata>
 <defs>
  <style type="text/css">*{stroke-linejoin: round; stroke-linecap: butt}</style>
 </defs>
 <g id="figure_1">
  <g id="patch_1">
   <path d="M 0 312.584187 
L 555.895156 312.584187 
L 555.895156 0 
L 0 0 
z
" style="fill: #fbf9f4"/>
  </g>
  <g id="axes_1">
   <g id="patch_2">
    <path d="M 46.495156 289.189969 
L 548.695156 289.189969 
L 548.695156 23.077969 
L 46.495156 23.077969 
z
" style="fill: #fbf9f4"/>
   </g>
   <g id="matplotlib.axis_1">
    <g id="xtick_1">
     <g id="line2d_1">
      <path d="M 69.322429 289.189969 
L 69.322429 23.077969 
" clip-path="url(#pc7fedc1cb6)" style="fill: none; stroke: #e8e2d3; stroke-width: 0.6; stroke-linecap: square"/>
     </g>
     <g id="line2d_2">
      <defs>
       <path id="mafb8950593" d="M 0 0 
L 0 3.5 
" style="stroke: #6b6660; stroke-width: 0.8"/>
      </defs>
      <g>
       <use xlink:href="#mafb8950593" x="69.322429" y="289.189969" style="fill: #6b6660; stroke: #6b6660; stroke-width: 0.8"/>
      </g>
     </g>
     <g id="text_1">
      <!-- 2010 -->
      <g style="fill: #6b6660" transform="translate(57.233679 303.408484) scale(0.095 -0.095)">
       <defs>
        <path id="DejaVuSans-32" d="M 1228 531 
L 3431 531 
L 3431 0 
L 469 0 
L 469 531 
Q 828 903 1448 1529 
Q 2069 2156 2228 2338 
Q 2531 2678 2651 2914 
Q 2772 3150 2772 3378 
Q 2772 3750 2511 3984 
Q 2250 4219 1831 4219 
Q 1534 4219 1204 4116 
Q 875 4013 500 3803 
L 500 4441 
Q 881 4594 1212 4672 
Q 1544 4750 1819 4750 
Q 2544 4750 2975 4387 
Q 3406 4025 3406 3419 
Q 3406 3131 3298 2873 
Q 3191 2616 2906 2266 
Q 2828 2175 2409 1742 
Q 1991 1309 1228 531 
z
" transform="scale(0.015625)"/>
        <path id="DejaVuSans-30" d="M 2034 4250 
Q 1547 4250 1301 3770 
Q 1056 3291 1056 2328 
Q 1056 1369 1301 889 
Q 1547 409 2034 409 
Q 2525 409 2770 889 
Q 3016 1369 3016 2328 
Q 3016 3291 2770 3770 
Q 2525 4250 2034 4250 
z
M 2034 4750 
Q 2819 4750 3233 4129 
Q 3647 3509 3647 2328 
Q 3647 1150 3233 529 
Q 2819 -91 2034 -91 
Q 1250 -91 836 529 
Q 422 1150 422 2328 
Q 422 3509 836 4129 
Q 1250 4750 2034 4750 
z
" transform="scale(0.015625)"/>
        <path id="DejaVuSans-31" d="M 794 531 
L 1825 531 
L 1825 4091 
L 703 3866 
L 703 4441 
L 1819 4666 
L 2450 4666 
L 2450 531 
L 3481 531 
L 3481 0 
L 794 0 
L 794 531 
z
" transform="scale(0.015625)"/>
       </defs>
       <use xlink:href="#DejaVuSans-32"/>
       <use xlink:href="#DejaVuSans-30" transform="translate(63.623047 0)"/>
       <use xlink:href="#DejaVuSans-31" transform="translate(127.246094 0)"/>
       <use xlink:href="#DejaVuSans-30" transform="translate(190.869141 0)"/>
      </g>
     </g>
    </g>
    <g id="xtick_2">
     <g id="line2d_3">
      <path d="M 125.781548 289.189969 
L 125.781548 23.077969 
" clip-path="url(#pc7fedc1cb6)" style="fill: none; stroke: #e8e2d3; stroke-width: 0.6; stroke-linecap: square"/>
     </g>
     <g id="line2d_4">
      <g>
       <use xlink:href="#mafb8950593" x="125.781548" y="289.189969" style="fill: #6b6660; stroke: #6b6660; stroke-width: 0.8"/>
      </g>
     </g>
     <g id="text_2">
      <!-- 2012 -->
      <g style="fill: #6b6660" transform="translate(113.692798 303.408484) scale(0.095 -0.095)">
       <use xlink:href="#DejaVuSans-32"/>
       <use xlink:href="#DejaVuSans-30" transform="translate(63.623047 0)"/>
       <use xlink:href="#DejaVuSans-31" transform="translate(127.246094 0)"/>
       <use xlink:href="#DejaVuSans-32" transform="translate(190.869141 0)"/>
      </g>
     </g>
    </g>
    <g id="xtick_3">
     <g id="line2d_5">
      <path d="M 182.318009 289.189969 
L 182.318009 23.077969 
" clip-path="url(#pc7fedc1cb6)" style="fill: none; stroke: #e8e2d3; stroke-width: 0.6; stroke-linecap: square"/>
     </g>
     <g id="line2d_6">
      <g>
       <use xlink:href="#mafb8950593" x="182.318009" y="289.189969" style="fill: #6b6660; stroke: #6b6660; stroke-width: 0.8"/>
      </g>
     </g>
     <g id="text_3">
      <!-- 2014 -->
      <g style="fill: #6b6660" transform="translate(170.229259 303.408484) scale(0.095 -0.095)">
       <defs>
        <path id="DejaVuSans-34" d="M 2419 4116 
L 825 1625 
L 2419 1625 
L 2419 4116 
z
M 2253 4666 
L 3047 4666 
L 3047 1625 
L 3713 1625 
L 3713 1100 
L 3047 1100 
L 3047 0 
L 2419 0 
L 2419 1100 
L 313 1100 
L 313 1709 
L 2253 4666 
z
" transform="scale(0.015625)"/>
       </defs>
       <use xlink:href="#DejaVuSans-32"/>
       <use xlink:href="#DejaVuSans-30" transform="translate(63.623047 0)"/>
       <use xlink:href="#DejaVuSans-31" transform="translate(127.246094 0)"/>
       <use xlink:href="#DejaVuSans-34" transform="translate(190.869141 0)"/>
      </g>
     </g>
    </g>
    <g id="xtick_4">
     <g id="line2d_7">
      <path d="M 238.777128 289.189969 
L 238.777128 23.077969 
" clip-path="url(#pc7fedc1cb6)" style="fill: none; stroke: #e8e2d3; stroke-width: 0.6; stroke-linecap: square"/>
     </g>
     <g id="line2d_8">
      <g>
       <use xlink:href="#mafb8950593" x="238.777128" y="289.189969" style="fill: #6b6660; stroke: #6b6660; stroke-width: 0.8"/>
      </g>
     </g>
     <g id="text_4">
      <!-- 2016 -->
      <g style="fill: #6b6660" transform="translate(226.688378 303.408484) scale(0.095 -0.095)">
       <defs>
        <path id="DejaVuSans-36" d="M 2113 2584 
Q 1688 2584 1439 2293 
Q 1191 2003 1191 1497 
Q 1191 994 1439 701 
Q 1688 409 2113 409 
Q 2538 409 2786 701 
Q 3034 994 3034 1497 
Q 3034 2003 2786 2293 
Q 2538 2584 2113 2584 
z
M 3366 4563 
L 3366 3988 
Q 3128 4100 2886 4159 
Q 2644 4219 2406 4219 
Q 1781 4219 1451 3797 
Q 1122 3375 1075 2522 
Q 1259 2794 1537 2939 
Q 1816 3084 2150 3084 
Q 2853 3084 3261 2657 
Q 3669 2231 3669 1497 
Q 3669 778 3244 343 
Q 2819 -91 2113 -91 
Q 1303 -91 875 529 
Q 447 1150 447 2328 
Q 447 3434 972 4092 
Q 1497 4750 2381 4750 
Q 2619 4750 2861 4703 
Q 3103 4656 3366 4563 
z
" transform="scale(0.015625)"/>
       </defs>
       <use xlink:href="#DejaVuSans-32"/>
       <use xlink:href="#DejaVuSans-30" transform="translate(63.623047 0)"/>
       <use xlink:href="#DejaVuSans-31" transform="translate(127.246094 0)"/>
       <use xlink:href="#DejaVuSans-36" transform="translate(190.869141 0)"/>
      </g>
     </g>
    </g>
    <g id="xtick_5">
     <g id="line2d_9">
      <path d="M 295.313589 289.189969 
L 295.313589 23.077969 
" clip-path="url(#pc7fedc1cb6)" style="fill: none; stroke: #e8e2d3; stroke-width: 0.6; stroke-linecap: square"/>
     </g>
     <g id="line2d_10">
      <g>
       <use xlink:href="#mafb8950593" x="295.313589" y="289.189969" style="fill: #6b6660; stroke: #6b6660; stroke-width: 0.8"/>
      </g>
     </g>
     <g id="text_5">
      <!-- 2018 -->
      <g style="fill: #6b6660" transform="translate(283.224839 303.408484) scale(0.095 -0.095)">
       <defs>
        <path id="DejaVuSans-38" d="M 2034 2216 
Q 1584 2216 1326 1975 
Q 1069 1734 1069 1313 
Q 1069 891 1326 650 
Q 1584 409 2034 409 
Q 2484 409 2743 651 
Q 3003 894 3003 1313 
Q 3003 1734 2745 1975 
Q 2488 2216 2034 2216 
z
M 1403 2484 
Q 997 2584 770 2862 
Q 544 3141 544 3541 
Q 544 4100 942 4425 
Q 1341 4750 2034 4750 
Q 2731 4750 3128 4425 
Q 3525 4100 3525 3541 
Q 3525 3141 3298 2862 
Q 3072 2584 2669 2484 
Q 3125 2378 3379 2068 
Q 3634 1759 3634 1313 
Q 3634 634 3220 271 
Q 2806 -91 2034 -91 
Q 1263 -91 848 271 
Q 434 634 434 1313 
Q 434 1759 690 2068 
Q 947 2378 1403 2484 
z
M 1172 3481 
Q 1172 3119 1398 2916 
Q 1625 2713 2034 2713 
Q 2441 2713 2670 2916 
Q 2900 3119 2900 3481 
Q 2900 3844 2670 4047 
Q 2441 4250 2034 4250 
Q 1625 4250 1398 4047 
Q 1172 3844 1172 3481 
z
" transform="scale(0.015625)"/>
       </defs>
       <use xlink:href="#DejaVuSans-32"/>
       <use xlink:href="#DejaVuSans-30" transform="translate(63.623047 0)"/>
       <use xlink:href="#DejaVuSans-31" transform="translate(127.246094 0)"/>
       <use xlink:href="#DejaVuSans-38" transform="translate(190.869141 0)"/>
      </g>
     </g>
    </g>
    <g id="xtick_6">
     <g id="line2d_11">
      <path d="M 351.772708 289.189969 
L 351.772708 23.077969 
" clip-path="url(#pc7fedc1cb6)" style="fill: none; stroke: #e8e2d3; stroke-width: 0.6; stroke-linecap: square"/>
     </g>
     <g id="line2d_12">
      <g>
       <use xlink:href="#mafb8950593" x="351.772708" y="289.189969" style="fill: #6b6660; stroke: #6b6660; stroke-width: 0.8"/>
      </g>
     </g>
     <g id="text_6">
      <!-- 2020 -->
      <g style="fill: #6b6660" transform="translate(339.683958 303.408484) scale(0.095 -0.095)">
       <use xlink:href="#DejaVuSans-32"/>
       <use xlink:href="#DejaVuSans-30" transform="translate(63.623047 0)"/>
       <use xlink:href="#DejaVuSans-32" transform="translate(127.246094 0)"/>
       <use xlink:href="#DejaVuSans-30" transform="translate(190.869141 0)"/>
      </g>
     </g>
    </g>
    <g id="xtick_7">
     <g id="line2d_13">
      <path d="M 408.309169 289.189969 
L 408.309169 23.077969 
" clip-path="url(#pc7fedc1cb6)" style="fill: none; stroke: #e8e2d3; stroke-width: 0.6; stroke-linecap: square"/>
     </g>
     <g id="line2d_14">
      <g>
       <use xlink:href="#mafb8950593" x="408.309169" y="289.189969" style="fill: #6b6660; stroke: #6b6660; stroke-width: 0.8"/>
      </g>
     </g>
     <g id="text_7">
      <!-- 2022 -->
      <g style="fill: #6b6660" transform="translate(396.220419 303.408484) scale(0.095 -0.095)">
       <use xlink:href="#DejaVuSans-32"/>
       <use xlink:href="#DejaVuSans-30" transform="translate(63.623047 0)"/>
       <use xlink:href="#DejaVuSans-32" transform="translate(127.246094 0)"/>
       <use xlink:href="#DejaVuSans-32" transform="translate(190.869141 0)"/>
      </g>
     </g>
    </g>
    <g id="xtick_8">
     <g id="line2d_15">
      <path d="M 464.768289 289.189969 
L 464.768289 23.077969 
" clip-path="url(#pc7fedc1cb6)" style="fill: none; stroke: #e8e2d3; stroke-width: 0.6; stroke-linecap: square"/>
     </g>
     <g id="line2d_16">
      <g>
       <use xlink:href="#mafb8950593" x="464.768289" y="289.189969" style="fill: #6b6660; stroke: #6b6660; stroke-width: 0.8"/>
      </g>
     </g>
     <g id="text_8">
      <!-- 2024 -->
      <g style="fill: #6b6660" transform="translate(452.679539 303.408484) scale(0.095 -0.095)">
       <use xlink:href="#DejaVuSans-32"/>
       <use xlink:href="#DejaVuSans-30" transform="translate(63.623047 0)"/>
       <use xlink:href="#DejaVuSans-32" transform="translate(127.246094 0)"/>
       <use xlink:href="#DejaVuSans-34" transform="translate(190.869141 0)"/>
      </g>
     </g>
    </g>
    <g id="xtick_9">
     <g id="line2d_17">
      <path d="M 521.304749 289.189969 
L 521.304749 23.077969 
" clip-path="url(#pc7fedc1cb6)" style="fill: none; stroke: #e8e2d3; stroke-width: 0.6; stroke-linecap: square"/>
     </g>
     <g id="line2d_18">
      <g>
       <use xlink:href="#mafb8950593" x="521.304749" y="289.189969" style="fill: #6b6660; stroke: #6b6660; stroke-width: 0.8"/>
      </g>
     </g>
     <g id="text_9">
      <!-- 2026 -->
      <g style="fill: #6b6660" transform="translate(509.215999 303.408484) scale(0.095 -0.095)">
       <use xlink:href="#DejaVuSans-32"/>
       <use xlink:href="#DejaVuSans-30" transform="translate(63.623047 0)"/>
       <use xlink:href="#DejaVuSans-32" transform="translate(127.246094 0)"/>
       <use xlink:href="#DejaVuSans-36" transform="translate(190.869141 0)"/>
      </g>
     </g>
    </g>
   </g>
   <g id="matplotlib.axis_2">
    <g id="ytick_1">
     <g id="line2d_19">
      <path d="M 46.495156 276.649416 
L 548.695156 276.649416 
" clip-path="url(#pc7fedc1cb6)" style="fill: none; stroke: #e8e2d3; stroke-width: 0.6; stroke-linecap: square"/>
     </g>
     <g id="line2d_20">
      <defs>
       <path id="m416dbfbd9f" d="M 0 0 
L -3.5 0 
" style="stroke: #6b6660; stroke-width: 0.8"/>
      </defs>
      <g>
       <use xlink:href="#m416dbfbd9f" x="46.495156" y="276.649416" style="fill: #6b6660; stroke: #6b6660; stroke-width: 0.8"/>
      </g>
     </g>
     <g id="text_10">
      <!-- 100 -->
      <g style="fill: #6b6660" transform="translate(21.362031 280.258674) scale(0.095 -0.095)">
       <use xlink:href="#DejaVuSans-31"/>
       <use xlink:href="#DejaVuSans-30" transform="translate(63.623047 0)"/>
       <use xlink:href="#DejaVuSans-30" transform="translate(127.246094 0)"/>
      </g>
     </g>
    </g>
    <g id="ytick_2">
     <g id="line2d_21">
      <path d="M 46.495156 246.595332 
L 548.695156 246.595332 
" clip-path="url(#pc7fedc1cb6)" style="fill: none; stroke: #e8e2d3; stroke-width: 0.6; stroke-linecap: square"/>
     </g>
     <g id="line2d_22">
      <g>
       <use xlink:href="#m416dbfbd9f" x="46.495156" y="246.595332" style="fill: #6b6660; stroke: #6b6660; stroke-width: 0.8"/>
      </g>
     </g>
     <g id="text_11">
      <!-- 105 -->
      <g style="fill: #6b6660" transform="translate(21.362031 250.20459) scale(0.095 -0.095)">
       <defs>
        <path id="DejaVuSans-35" d="M 691 4666 
L 3169 4666 
L 3169 4134 
L 1269 4134 
L 1269 2991 
Q 1406 3038 1543 3061 
Q 1681 3084 1819 3084 
Q 2600 3084 3056 2656 
Q 3513 2228 3513 1497 
Q 3513 744 3044 326 
Q 2575 -91 1722 -91 
Q 1428 -91 1123 -41 
Q 819 9 494 109 
L 494 744 
Q 775 591 1075 516 
Q 1375 441 1709 441 
Q 2250 441 2565 725 
Q 2881 1009 2881 1497 
Q 2881 1984 2565 2268 
Q 2250 2553 1709 2553 
Q 1456 2553 1204 2497 
Q 953 2441 691 2322 
L 691 4666 
z
" transform="scale(0.015625)"/>
       </defs>
       <use xlink:href="#DejaVuSans-31"/>
       <use xlink:href="#DejaVuSans-30" transform="translate(63.623047 0)"/>
       <use xlink:href="#DejaVuSans-35" transform="translate(127.246094 0)"/>
      </g>
     </g>
    </g>
    <g id="ytick_3">
     <g id="line2d_23">
      <path d="M 46.495156 216.541248 
L 548.695156 216.541248 
" clip-path="url(#pc7fedc1cb6)" style="fill: none; stroke: #e8e2d3; stroke-width: 0.6; stroke-linecap: square"/>
     </g>
     <g id="line2d_24">
      <g>
       <use xlink:href="#m416dbfbd9f" x="46.495156" y="216.541248" style="fill: #6b6660; stroke: #6b6660; stroke-width: 0.8"/>
      </g>
     </g>
     <g id="text_12">
      <!-- 110 -->
      <g style="fill: #6b6660" transform="translate(21.362031 220.150506) scale(0.095 -0.095)">
       <use xlink:href="#DejaVuSans-31"/>
       <use xlink:href="#DejaVuSans-31" transform="translate(63.623047 0)"/>
       <use xlink:href="#DejaVuSans-30" transform="translate(127.246094 0)"/>
      </g>
     </g>
    </g>
    <g id="ytick_4">
     <g id="line2d_25">
      <path d="M 46.495156 186.487164 
L 548.695156 186.487164 
" clip-path="url(#pc7fedc1cb6)" style="fill: none; stroke: #e8e2d3; stroke-width: 0.6; stroke-linecap: square"/>
     </g>
     <g id="line2d_26">
      <g>
       <use xlink:href="#m416dbfbd9f" x="46.495156" y="186.487164" style="fill: #6b6660; stroke: #6b6660; stroke-width: 0.8"/>
      </g>
     </g>
     <g id="text_13">
      <!-- 115 -->
      <g style="fill: #6b6660" transform="translate(21.362031 190.096422) scale(0.095 -0.095)">
       <use xlink:href="#DejaVuSans-31"/>
       <use xlink:href="#DejaVuSans-31" transform="translate(63.623047 0)"/>
       <use xlink:href="#DejaVuSans-35" transform="translate(127.246094 0)"/>
      </g>
     </g>
    </g>
    <g id="ytick_5">
     <g id="line2d_27">
      <path d="M 46.495156 156.43308 
L 548.695156 156.43308 
" clip-path="url(#pc7fedc1cb6)" style="fill: none; stroke: #e8e2d3; stroke-width: 0.6; stroke-linecap: square"/>
     </g>
     <g id="line2d_28">
      <g>
       <use xlink:href="#m416dbfbd9f" x="46.495156" y="156.43308" style="fill: #6b6660; stroke: #6b6660; stroke-width: 0.8"/>
      </g>
     </g>
     <g id="text_14">
      <!-- 120 -->
      <g style="fill: #6b6660" transform="translate(21.362031 160.042338) scale(0.095 -0.095)">
       <use xlink:href="#DejaVuSans-31"/>
       <use xlink:href="#DejaVuSans-32" transform="translate(63.623047 0)"/>
       <use xlink:href="#DejaVuSans-30" transform="translate(127.246094 0)"/>
      </g>
     </g>
    </g>
    <g id="ytick_6">
     <g id="line2d_29">
      <path d="M 46.495156 126.378997 
L 548.695156 126.378997 
" clip-path="url(#pc7fedc1cb6)" style="fill: none; stroke: #e8e2d3; stroke-width: 0.6; stroke-linecap: square"/>
     </g>
     <g id="line2d_30">
      <g>
       <use xlink:href="#m416dbfbd9f" x="46.495156" y="126.378997" style="fill: #6b6660; stroke: #6b6660; stroke-width: 0.8"/>
      </g>
     </g>
     <g id="text_15">
      <!-- 125 -->
      <g style="fill: #6b6660" transform="translate(21.362031 129.988254) scale(0.095 -0.095)">
       <use xlink:href="#DejaVuSans-31"/>
       <use xlink:href="#DejaVuSans-32" transform="translate(63.623047 0)"/>
       <use xlink:href="#DejaVuSans-35" transform="translate(127.246094 0)"/>
      </g>
     </g>
    </g>
    <g id="ytick_7">
     <g id="line2d_31">
      <path d="M 46.495156 96.324913 
L 548.695156 96.324913 
" clip-path="url(#pc7fedc1cb6)" style="fill: none; stroke: #e8e2d3; stroke-width: 0.6; stroke-linecap: square"/>
     </g>
     <g id="line2d_32">
      <g>
       <use xlink:href="#m416dbfbd9f" x="46.495156" y="96.324913" style="fill: #6b6660; stroke: #6b6660; stroke-width: 0.8"/>
      </g>
     </g>
     <g id="text_16">
      <!-- 130 -->
      <g style="fill: #6b6660" transform="translate(21.362031 99.934171) scale(0.095 -0.095)">
       <defs>
        <path id="DejaVuSans-33" d="M 2597 2516 
Q 3050 2419 3304 2112 
Q 3559 1806 3559 1356 
Q 3559 666 3084 287 
Q 2609 -91 1734 -91 
Q 1441 -91 1130 -33 
Q 819 25 488 141 
L 488 750 
Q 750 597 1062 519 
Q 1375 441 1716 441 
Q 2309 441 2620 675 
Q 2931 909 2931 1356 
Q 2931 1769 2642 2001 
Q 2353 2234 1838 2234 
L 1294 2234 
L 1294 2753 
L 1863 2753 
Q 2328 2753 2575 2939 
Q 2822 3125 2822 3475 
Q 2822 3834 2567 4026 
Q 2313 4219 1838 4219 
Q 1578 4219 1281 4162 
Q 984 4106 628 3988 
L 628 4550 
Q 988 4650 1302 4700 
Q 1616 4750 1894 4750 
Q 2613 4750 3031 4423 
Q 3450 4097 3450 3541 
Q 3450 3153 3228 2886 
Q 3006 2619 2597 2516 
z
" transform="scale(0.015625)"/>
       </defs>
       <use xlink:href="#DejaVuSans-31"/>
       <use xlink:href="#DejaVuSans-33" transform="translate(63.623047 0)"/>
       <use xlink:href="#DejaVuSans-30" transform="translate(127.246094 0)"/>
      </g>
     </g>
    </g>
    <g id="ytick_8">
     <g id="line2d_33">
      <path d="M 46.495156 66.270829 
L 548.695156 66.270829 
" clip-path="url(#pc7fedc1cb6)" style="fill: none; stroke: #e8e2d3; stroke-width: 0.6; stroke-linecap: square"/>
     </g>
     <g id="line2d_34">
      <g>
       <use xlink:href="#m416dbfbd9f" x="46.495156" y="66.270829" style="fill: #6b6660; stroke: #6b6660; stroke-width: 0.8"/>
      </g>
     </g>
     <g id="text_17">
      <!-- 135 -->
      <g style="fill: #6b6660" transform="translate(21.362031 69.880087) scale(0.095 -0.095)">
       <use xlink:href="#DejaVuSans-31"/>
       <use xlink:href="#DejaVuSans-33" transform="translate(63.623047 0)"/>
       <use xlink:href="#DejaVuSans-35" transform="translate(127.246094 0)"/>
      </g>
     </g>
    </g>
    <g id="ytick_9">
     <g id="line2d_35">
      <path d="M 46.495156 36.216745 
L 548.695156 36.216745 
" clip-path="url(#pc7fedc1cb6)" style="fill: none; stroke: #e8e2d3; stroke-width: 0.6; stroke-linecap: square"/>
     </g>
     <g id="line2d_36">
      <g>
       <use xlink:href="#m416dbfbd9f" x="46.495156" y="36.216745" style="fill: #6b6660; stroke: #6b6660; stroke-width: 0.8"/>
      </g>
     </g>
     <g id="text_18">
      <!-- 140 -->
      <g style="fill: #6b6660" transform="translate(21.362031 39.826003) scale(0.095 -0.095)">
       <use xlink:href="#DejaVuSans-31"/>
       <use xlink:href="#DejaVuSans-34" transform="translate(63.623047 0)"/>
       <use xlink:href="#DejaVuSans-30" transform="translate(127.246094 0)"/>
      </g>
     </g>
    </g>
    <g id="text_19">
     <!-- Index (Jan 2010 = 100) -->
     <g style="fill: #3d3a36" transform="translate(15.178359 217.234125) rotate(-90) scale(0.105 -0.105)">
      <defs>
       <path id="DejaVuSans-49" d="M 628 4666 
L 1259 4666 
L 1259 0 
L 628 0 
L 628 4666 
z
" transform="scale(0.015625)"/>
       <path id="DejaVuSans-6e" d="M 3513 2113 
L 3513 0 
L 2938 0 
L 2938 2094 
Q 2938 2591 2744 2837 
Q 2550 3084 2163 3084 
Q 1697 3084 1428 2787 
Q 1159 2491 1159 1978 
L 1159 0 
L 581 0 
L 581 3500 
L 1159 3500 
L 1159 2956 
Q 1366 3272 1645 3428 
Q 1925 3584 2291 3584 
Q 2894 3584 3203 3211 
Q 3513 2838 3513 2113 
z
" transform="scale(0.015625)"/>
       <path id="DejaVuSans-64" d="M 2906 2969 
L 2906 4863 
L 3481 4863 
L 3481 0 
L 2906 0 
L 2906 525 
Q 2725 213 2448 61 
Q 2172 -91 1784 -91 
Q 1150 -91 751 415 
Q 353 922 353 1747 
Q 353 2572 751 3078 
Q 1150 3584 1784 3584 
Q 2172 3584 2448 3432 
Q 2725 3281 2906 2969 
z
M 947 1747 
Q 947 1113 1208 752 
Q 1469 391 1925 391 
Q 2381 391 2643 752 
Q 2906 1113 2906 1747 
Q 2906 2381 2643 2742 
Q 2381 3103 1925 3103 
Q 1469 3103 1208 2742 
Q 947 2381 947 1747 
z
" transform="scale(0.015625)"/>
       <path id="DejaVuSans-65" d="M 3597 1894 
L 3597 1613 
L 953 1613 
Q 991 1019 1311 708 
Q 1631 397 2203 397 
Q 2534 397 2845 478 
Q 3156 559 3463 722 
L 3463 178 
Q 3153 47 2828 -22 
Q 2503 -91 2169 -91 
Q 1331 -91 842 396 
Q 353 884 353 1716 
Q 353 2575 817 3079 
Q 1281 3584 2069 3584 
Q 2775 3584 3186 3129 
Q 3597 2675 3597 1894 
z
M 3022 2063 
Q 3016 2534 2758 2815 
Q 2500 3097 2075 3097 
Q 1594 3097 1305 2825 
Q 1016 2553 972 2059 
L 3022 2063 
z
" transform="scale(0.015625)"/>
       <path id="DejaVuSans-78" d="M 3513 3500 
L 2247 1797 
L 3578 0 
L 2900 0 
L 1881 1375 
L 863 0 
L 184 0 
L 1544 1831 
L 300 3500 
L 978 3500 
L 1906 2253 
L 2834 3500 
L 3513 3500 
z
" transform="scale(0.015625)"/>
       <path id="DejaVuSans-20" transform="scale(0.015625)"/>
       <path id="DejaVuSans-28" d="M 1984 4856 
Q 1566 4138 1362 3434 
Q 1159 2731 1159 2009 
Q 1159 1288 1364 580 
Q 1569 -128 1984 -844 
L 1484 -844 
Q 1016 -109 783 600 
Q 550 1309 550 2009 
Q 550 2706 781 3412 
Q 1013 4119 1484 4856 
L 1984 4856 
z
" transform="scale(0.015625)"/>
       <path id="DejaVuSans-4a" d="M 628 4666 
L 1259 4666 
L 1259 325 
Q 1259 -519 939 -900 
Q 619 -1281 -91 -1281 
L -331 -1281 
L -331 -750 
L -134 -750 
Q 284 -750 456 -515 
Q 628 -281 628 325 
L 628 4666 
z
" transform="scale(0.015625)"/>
       <path id="DejaVuSans-61" d="M 2194 1759 
Q 1497 1759 1228 1600 
Q 959 1441 959 1056 
Q 959 750 1161 570 
Q 1363 391 1709 391 
Q 2188 391 2477 730 
Q 2766 1069 2766 1631 
L 2766 1759 
L 2194 1759 
z
M 3341 1997 
L 3341 0 
L 2766 0 
L 2766 531 
Q 2569 213 2275 61 
Q 1981 -91 1556 -91 
Q 1019 -91 701 211 
Q 384 513 384 1019 
Q 384 1609 779 1909 
Q 1175 2209 1959 2209 
L 2766 2209 
L 2766 2266 
Q 2766 2663 2505 2880 
Q 2244 3097 1772 3097 
Q 1472 3097 1187 3025 
Q 903 2953 641 2809 
L 641 3341 
Q 956 3463 1253 3523 
Q 1550 3584 1831 3584 
Q 2591 3584 2966 3190 
Q 3341 2797 3341 1997 
z
" transform="scale(0.015625)"/>
       <path id="DejaVuSans-3d" d="M 678 2906 
L 4684 2906 
L 4684 2381 
L 678 2381 
L 678 2906 
z
M 678 1631 
L 4684 1631 
L 4684 1100 
L 678 1100 
L 678 1631 
z
" transform="scale(0.015625)"/>
       <path id="DejaVuSans-29" d="M 513 4856 
L 1013 4856 
Q 1481 4119 1714 3412 
Q 1947 2706 1947 2009 
Q 1947 1309 1714 600 
Q 1481 -109 1013 -844 
L 513 -844 
Q 928 -128 1133 580 
Q 1338 1288 1338 2009 
Q 1338 2731 1133 3434 
Q 928 4138 513 4856 
z
" transform="scale(0.015625)"/>
      </defs>
      <use xlink:href="#DejaVuSans-49"/>
      <use xlink:href="#DejaVuSans-6e" transform="translate(29.492188 0)"/>
      <use xlink:href="#DejaVuSans-64" transform="translate(92.871094 0)"/>
      <use xlink:href="#DejaVuSans-65" transform="translate(156.347656 0)"/>
      <use xlink:href="#DejaVuSans-78" transform="translate(216.121094 0)"/>
      <use xlink:href="#DejaVuSans-20" transform="translate(275.300781 0)"/>
      <use xlink:href="#DejaVuSans-28" transform="translate(307.087891 0)"/>
      <use xlink:href="#DejaVuSans-4a" transform="translate(346.101562 0)"/>
      <use xlink:href="#DejaVuSans-61" transform="translate(375.59375 0)"/>
      <use xlink:href="#DejaVuSans-6e" transform="translate(436.873047 0)"/>
      <use xlink:href="#DejaVuSans-20" transform="translate(500.251953 0)"/>
      <use xlink:href="#DejaVuSans-32" transform="translate(532.039062 0)"/>
      <use xlink:href="#DejaVuSans-30" transform="translate(595.662109 0)"/>
      <use xlink:href="#DejaVuSans-31" transform="translate(659.285156 0)"/>
      <use xlink:href="#DejaVuSans-30" transform="translate(722.908203 0)"/>
      <use xlink:href="#DejaVuSans-20" transform="translate(786.53125 0)"/>
      <use xlink:href="#DejaVuSans-3d" transform="translate(818.318359 0)"/>
      <use xlink:href="#DejaVuSans-20" transform="translate(902.107422 0)"/>
      <use xlink:href="#DejaVuSans-31" transform="translate(933.894531 0)"/>
      <use xlink:href="#DejaVuSans-30" transform="translate(997.517578 0)"/>
      <use xlink:href="#DejaVuSans-30" transform="translate(1061.140625 0)"/>
      <use xlink:href="#DejaVuSans-29" transform="translate(1124.763672 0)"/>
     </g>
    </g>
   </g>
   <g id="line2d_37">
    <path d="M 69.322429 276.649416 
L 71.720008 277.093969 
L 73.885563 276.353047 
L 76.283142 275.176835 
L 78.60338 272.759579 
L 81.000959 273.370839 
L 83.321197 273.810761 
L 85.718776 273.810761 
L 88.116355 274.153437 
L 90.436593 272.861456 
L 92.834172 272.264088 
L 95.15441 271.888997 
L 97.551989 271.856581 
L 99.949568 270.837814 
L 102.115123 269.791263 
L 104.512702 268.337205 
L 106.83294 267.846345 
L 109.230519 266.790532 
L 111.550757 266.508055 
L 113.948336 265.892165 
L 118.666153 263.9102 
L 121.063732 263.275786 
L 123.383969 262.358896 
L 125.781548 260.701085 
L 130.422024 258.376444 
L 132.819603 258.019876 
L 135.139841 257.524385 
L 137.53742 257.149293 
L 139.857658 256.482464 
L 144.652816 254.815391 
L 149.370633 253.389117 
L 151.69087 252.236059 
L 154.088449 251.38863 
L 156.486028 250.050341 
L 158.651584 249.388142 
L 161.049163 248.536083 
L 163.3694 247.503424 
L 165.76698 246.655995 
L 168.087217 246.13735 
L 170.484796 244.956507 
L 172.882375 244.146124 
L 175.202613 243.127357 
L 177.600192 241.849268 
L 179.92043 241.594576 
L 182.318009 240.719363 
L 184.715588 240.020119 
L 189.278722 237.306494 
L 191.59896 236.310881 
L 193.996539 234.754946 
L 196.316777 233.722287 
L 198.714356 232.810028 
L 201.111935 231.448585 
L 203.432173 230.360357 
L 208.14999 227.739348 
L 210.547569 226.794673 
L 212.945148 225.595307 
L 215.110703 225.150754 
L 217.508282 223.886557 
L 219.82852 222.302838 
L 222.226099 221.510978 
L 224.546337 220.205104 
L 229.341495 218.889969 
L 231.661733 217.482218 
L 234.059312 216.421775 
L 236.379549 215.176101 
L 238.777128 214.56021 
L 241.174707 213.652581 
L 243.417604 212.467107 
L 245.815183 211.578002 
L 248.135421 211.364987 
L 250.533 210.221189 
L 252.853238 208.493917 
L 255.250817 207.84098 
L 257.648396 206.423968 
L 262.366213 205.423724 
L 267.084029 203.363036 
L 269.481608 202.353531 
L 271.647164 201.779317 
L 281.082797 198.065449 
L 283.480376 197.384728 
L 285.877955 196.97259 
L 288.198193 196.319653 
L 290.595772 195.286994 
L 295.313589 193.953336 
L 297.711168 192.128817 
L 299.876723 191.082266 
L 302.274302 190.43396 
L 304.59454 188.942855 
L 306.992119 187.93335 
L 309.312357 187.655505 
L 311.709936 186.4654 
L 314.107515 186.090308 
L 316.427753 185.30771 
L 318.825332 184.890942 
L 321.14557 184.001836 
L 323.543149 182.839516 
L 325.940728 182.807101 
L 328.106283 181.751288 
L 330.503862 180.380583 
L 332.8241 180.255553 
L 335.221679 179.236786 
L 337.541917 178.778341 
L 339.939496 177.704005 
L 342.337075 176.796377 
L 344.657313 176.356455 
L 347.054892 175.397888 
L 349.375129 174.809781 
L 354.170288 172.499033 
L 356.413184 178.972833 
L 358.810763 273.759823 
L 361.131001 261.655021 
L 363.52858 240.20998 
L 368.246397 225.623091 
L 370.643976 221.228502 
L 372.964214 218.033279 
L 375.361793 216.769082 
L 377.68203 217.625772 
L 380.079609 216.167083 
L 382.477188 213.772981 
L 384.642744 209.827575 
L 387.040323 208.183656 
L 389.360561 205.970153 
L 391.75814 202.473931 
L 394.078377 198.111757 
L 396.475956 195.555578 
L 398.873536 193.439322 
L 401.193773 189.730084 
L 403.591352 186.683045 
L 405.91159 183.969421 
L 408.309169 183.089577 
L 410.706748 179.296986 
L 412.872303 177.027915 
L 417.59012 174.207783 
L 419.987699 172.198034 
L 422.307937 168.891672 
L 424.705516 167.548752 
L 427.103095 166.529986 
L 429.423333 164.876805 
L 431.820912 163.473685 
L 434.14115 163.010609 
L 436.538729 161.00086 
L 438.936308 159.65794 
L 441.101863 159.343049 
L 443.499442 158.227036 
L 445.81968 156.930424 
L 448.217259 155.888503 
L 450.537497 155.13369 
L 452.935076 154.124184 
L 464.768289 150.55387 
L 467.165868 149.599934 
L 469.408764 148.544121 
L 474.126581 147.886553 
L 476.52416 147.483677 
L 478.844398 147.238247 
L 481.241977 147.19657 
L 483.639556 146.478803 
L 485.959794 146.325988 
L 488.357373 145.705466 
L 490.67761 144.607976 
L 493.07519 144.830253 
L 495.472769 144.635761 
L 497.638324 144.3255 
L 500.035903 143.825378 
L 502.356141 143.765178 
L 504.75372 143.857793 
L 507.073957 143.561425 
L 509.471537 143.885578 
L 511.869116 143.53364 
L 514.189353 144.181947 
L 516.586932 143.992085 
L 518.90717 144.070808 
L 521.304749 143.329887 
L 523.702328 143.945778 
L 525.867884 143.121503 
L 525.867884 143.121503 
" clip-path="url(#pc7fedc1cb6)" style="fill: none; stroke: #1a1a1a; stroke-width: 1.8; stroke-linecap: square"/>
   </g>
   <g id="line2d_38">
    <path d="M 69.322429 276.649416 
L 71.720008 275.962548 
L 73.885563 276.577114 
L 76.283142 273.251228 
L 78.60338 271.985945 
L 81.000959 269.744586 
L 83.321197 269.383077 
L 85.718776 267.214021 
L 88.116355 266.563304 
L 90.436593 264.068889 
L 92.834172 260.670701 
L 95.15441 258.103984 
L 97.551989 257.742474 
L 99.949568 254.88655 
L 102.115123 252.536739 
L 104.512702 250.295381 
L 106.83294 248.451683 
L 109.230519 247.837117 
L 111.550757 247.58406 
L 113.948336 244.87274 
L 116.345915 242.522929 
L 118.666153 240.823835 
L 121.063732 239.522401 
L 123.383969 237.064137 
L 125.781548 233.955156 
L 128.179127 231.42459 
L 130.422024 230.195458 
L 132.819603 228.424062 
L 135.139841 227.520289 
L 137.53742 225.495836 
L 139.857658 223.977497 
L 142.255237 222.748365 
L 144.652816 222.16995 
L 146.973053 219.530931 
L 149.370633 217.57878 
L 151.69087 216.241195 
L 154.088449 214.722856 
L 156.486028 211.360819 
L 161.049163 207.095008 
L 163.3694 205.142857 
L 168.087217 201.780819 
L 172.882375 199.720216 
L 175.202613 197.912669 
L 177.600192 195.454405 
L 179.92043 195.852065 
L 182.318009 194.152971 
L 184.715588 191.911613 
L 186.881143 190.212519 
L 189.278722 188.115764 
L 191.59896 186.633576 
L 193.996539 184.428368 
L 196.316777 183.054633 
L 201.111935 178.933425 
L 203.432173 177.885048 
L 205.829752 175.860596 
L 208.14999 173.004671 
L 210.547569 172.100898 
L 212.945148 170.510256 
L 215.110703 169.461879 
L 217.508282 167.907389 
L 219.82852 164.906861 
L 222.226099 163.099314 
L 224.546337 161.834031 
L 226.943916 160.677201 
L 229.341495 159.954182 
L 231.661733 157.242862 
L 234.059312 155.977579 
L 236.379549 153.447013 
L 241.174707 152.615541 
L 243.417604 151.747919 
L 245.815183 150.62724 
L 248.135421 150.374183 
L 250.533 148.855843 
L 252.853238 147.1929 
L 255.250817 147.048296 
L 257.648396 144.553882 
L 259.968634 143.758561 
L 267.084029 139.709656 
L 269.481608 139.058939 
L 274.044743 136.853731 
L 276.364981 134.612373 
L 278.76256 133.419392 
L 281.082797 131.864902 
L 283.480376 130.455015 
L 285.877955 130.563468 
L 288.198193 129.081279 
L 290.595772 128.502864 
L 292.91601 127.092978 
L 295.313589 124.996223 
L 297.711168 123.586336 
L 299.876723 121.887242 
L 302.274302 120.296601 
L 304.59454 118.163696 
L 306.992119 116.392299 
L 309.312357 115.922337 
L 311.709936 114.512451 
L 314.107515 113.31947 
L 316.427753 112.379545 
L 318.825332 112.19879 
L 321.14557 111.475772 
L 323.543149 111.295017 
L 328.106283 109.234413 
L 330.503862 107.17381 
L 335.221679 104.028678 
L 337.541917 103.34181 
L 339.939496 102.112678 
L 347.054892 100.955848 
L 349.375129 101.678867 
L 354.170288 101.100452 
L 356.413184 104.534791 
L 358.810763 182.801576 
L 361.131001 176.04135 
L 363.52858 163.099314 
L 368.246397 149.398108 
L 370.643976 145.059995 
L 372.964214 138.263618 
L 375.361793 132.94943 
L 377.68203 126.876072 
L 380.079609 121.381129 
L 382.477188 118.597507 
L 384.642744 114.620903 
L 387.040323 114.837809 
L 389.360561 112.19879 
L 391.75814 109.270564 
L 394.078377 103.450263 
L 396.475956 99.220603 
L 398.873536 95.569358 
L 401.193773 87.001585 
L 403.591352 81.723548 
L 405.91159 77.746945 
L 408.309169 75.794794 
L 410.706748 68.962266 
L 412.872303 64.949512 
L 415.269883 65.491776 
L 417.59012 64.226493 
L 419.987699 62.021286 
L 422.307937 58.623098 
L 424.705516 57.213211 
L 427.103095 55.514117 
L 429.423333 54.10423 
L 431.820912 53.778872 
L 434.14115 54.429588 
L 436.538729 53.815023 
L 438.936308 52.152079 
L 441.101863 52.332834 
L 443.499442 52.152079 
L 445.81968 51.682117 
L 448.217259 52.54974 
L 450.537497 54.248834 
L 452.935076 54.646494 
L 455.332655 55.550268 
L 457.652893 56.562494 
L 460.050472 58.514645 
L 462.37071 59.165362 
L 464.768289 58.261588 
L 467.165868 58.623098 
L 469.408764 59.599173 
L 471.806343 60.141437 
L 474.126581 59.526871 
L 476.52416 60.502946 
L 478.844398 61.298267 
L 481.241977 62.744305 
L 483.639556 63.431173 
L 485.959794 64.841059 
L 488.357373 64.371097 
L 490.67761 63.178116 
L 493.07519 65.057965 
L 495.472769 65.311021 
L 497.638324 65.889436 
L 500.035903 65.419474 
L 502.356141 66.142493 
L 504.75372 67.263172 
L 507.073957 67.841587 
L 509.471537 68.853814 
L 511.869116 69.432229 
L 514.189353 70.299851 
L 516.586932 68.275398 
L 518.90717 68.962266 
L 521.304749 67.660832 
L 523.702328 67.407776 
L 525.867884 67.335474 
L 525.867884 67.335474 
" clip-path="url(#pc7fedc1cb6)" style="fill: none; stroke: #1f5fa6; stroke-width: 1.8; stroke-linecap: square"/>
   </g>
   <g id="line2d_39">
    <path d="M 69.322429 276.649416 
L 71.720008 276.22503 
L 73.885563 274.618427 
L 76.283142 274.284982 
L 81.000959 272.557126 
L 83.321197 272.193366 
L 85.718776 271.102089 
L 88.116355 271.314282 
L 90.436593 269.25298 
L 92.834172 268.040449 
L 95.15441 267.646377 
L 97.551989 266.918859 
L 102.115123 266.009461 
L 104.512702 264.433171 
L 106.83294 263.796593 
L 109.230519 262.856882 
L 111.550757 261.401845 
L 113.948336 260.340881 
L 116.345915 258.825218 
L 118.666153 257.764254 
L 123.383969 255.854518 
L 125.781548 254.096349 
L 128.179127 251.883481 
L 130.422024 250.549697 
L 132.819603 250.034372 
L 135.139841 248.912781 
L 137.53742 248.912781 
L 139.857658 247.851817 
L 142.255237 247.033359 
L 144.652816 245.851141 
L 146.973053 244.941744 
L 149.370633 244.790177 
L 151.69087 243.183574 
L 154.088449 242.728875 
L 156.486028 242.39543 
L 161.049163 239.42473 
L 163.3694 238.848778 
L 165.76698 238.666898 
L 168.087217 238.939718 
L 170.484796 236.696536 
L 172.882375 237.120922 
L 175.202613 236.36309 
L 177.600192 235.089933 
L 179.92043 235.120247 
L 182.318009 233.998656 
L 184.715588 233.513644 
L 186.881143 232.301113 
L 189.278722 231.361402 
L 191.59896 229.785112 
L 193.996539 228.299763 
L 196.316777 227.511618 
L 198.714356 225.965641 
L 201.111935 224.753111 
L 203.432173 223.90434 
L 208.14999 220.600194 
L 210.547569 218.538892 
L 212.945148 217.296048 
L 215.110703 216.022891 
L 217.508282 213.810023 
L 222.226099 210.505878 
L 224.546337 209.263034 
L 226.943916 208.171757 
L 229.341495 206.595467 
L 231.661733 204.412912 
L 234.059312 202.957875 
L 236.379549 201.199706 
L 238.777128 200.290308 
L 245.815183 195.591753 
L 248.135421 193.742644 
L 250.533 192.196667 
L 252.853238 190.559751 
L 255.250817 189.165341 
L 257.648396 187.225292 
L 259.968634 185.770256 
L 262.366213 184.618352 
L 264.68645 182.708616 
L 267.084029 182.314544 
L 269.481608 179.980423 
L 271.647164 179.101338 
L 274.044743 177.343169 
L 276.364981 176.282205 
L 278.76256 175.524373 
L 281.082797 173.493384 
L 283.480376 172.371794 
L 285.877955 171.583649 
L 288.198193 171.03801 
L 290.595772 169.795166 
L 292.91601 168.916082 
L 297.711168 165.55131 
L 299.876723 164.672225 
L 302.274302 163.97502 
L 304.59454 162.853429 
L 309.312357 161.034634 
L 311.709936 159.276464 
L 314.107515 159.033958 
L 316.427753 157.609235 
L 318.825332 157.245476 
L 321.14557 154.699162 
L 323.543149 153.183499 
L 325.940728 152.54692 
L 328.106283 150.576558 
L 330.503862 148.575883 
L 332.8241 147.484605 
L 337.541917 144.726099 
L 339.939496 142.755737 
L 344.657313 140.270049 
L 347.054892 138.360314 
L 349.375129 137.238723 
L 351.772708 134.753035 
L 354.170288 132.8433 
L 356.413184 139.421278 
L 358.810763 218.660145 
L 361.131001 206.292334 
L 363.52858 188.801582 
L 368.246397 176.767217 
L 370.643976 174.796855 
L 372.964214 172.098974 
L 375.361793 170.310492 
L 377.68203 170.401432 
L 380.079609 169.55266 
L 382.477188 168.006684 
L 384.642744 164.278153 
L 387.040323 162.823116 
L 389.360561 161.853092 
L 391.75814 161.064947 
L 394.078377 159.79179 
L 396.475956 159.064272 
L 398.873536 159.155211 
L 401.193773 156.275452 
L 405.91159 153.668511 
L 408.309169 154.183836 
L 410.706748 150.697811 
L 412.872303 148.484943 
L 417.59012 144.877665 
L 419.987699 142.119158 
L 422.307937 138.23906 
L 424.705516 136.026192 
L 427.103095 133.479878 
L 429.423333 130.751685 
L 431.820912 128.114431 
L 434.14115 126.780647 
L 436.538729 123.446188 
L 438.936308 121.23332 
L 443.499442 116.474138 
L 445.81968 113.200306 
L 448.217259 110.381172 
L 450.537497 106.713268 
L 452.935076 103.409122 
L 457.652893 97.619289 
L 460.050472 94.042324 
L 462.37071 91.556637 
L 469.408764 82.765791 
L 471.806343 80.098223 
L 474.126581 77.976295 
L 476.52416 75.217788 
L 478.844398 73.974944 
L 481.241977 72.216775 
L 483.639556 68.63981 
L 485.959794 65.76005 
L 488.357373 63.213736 
L 490.67761 60.940242 
L 495.472769 57.332963 
L 497.638324 55.271662 
L 500.035903 52.725348 
L 502.356141 50.906552 
L 504.75372 49.421202 
L 507.073957 46.783948 
L 509.471537 46.086743 
L 511.869116 44.449827 
L 514.189353 43.116043 
L 516.586932 41.418501 
L 518.90717 40.266597 
L 521.304749 36.659319 
L 523.702328 37.932476 
L 525.867884 35.173969 
L 525.867884 35.173969 
" clip-path="url(#pc7fedc1cb6)" style="fill: none; stroke: #2c8a57; stroke-width: 1.8; stroke-linecap: square"/>
   </g>
   <g id="line2d_40">
    <path d="M 69.322429 276.649416 
L 71.720008 277.080237 
L 73.885563 276.132431 
L 76.283142 273.547504 
L 78.60338 271.221069 
L 81.000959 269.756277 
L 83.321197 268.636142 
L 85.718776 268.119157 
L 88.116355 266.740529 
L 90.436593 266.395872 
L 92.834172 265.103409 
L 95.15441 264.069438 
L 97.551989 261.398347 
L 99.949568 259.244241 
L 102.115123 257.520957 
L 104.512702 255.194522 
L 109.230519 252.351103 
L 111.550757 251.230968 
L 113.948336 249.938504 
L 116.345915 248.990698 
L 118.666153 247.61207 
L 121.063732 247.61207 
L 123.383969 244.423993 
L 125.781548 241.839067 
L 128.179127 239.943453 
L 130.422024 237.703183 
L 132.819603 236.496884 
L 137.53742 234.859764 
L 139.857658 232.964151 
L 144.652816 234.687435 
L 149.370633 234.256614 
L 151.69087 232.877986 
L 154.088449 232.016344 
L 158.651584 230.723881 
L 161.049163 230.465388 
L 163.3694 230.551552 
L 165.76698 230.034567 
L 168.087217 232.016344 
L 170.484796 229.345253 
L 172.882375 227.880461 
L 177.600192 225.898684 
L 179.92043 225.640191 
L 182.318009 226.329505 
L 184.715588 224.433892 
L 186.881143 223.141428 
L 189.278722 222.279786 
L 191.59896 220.987323 
L 193.996539 219.005545 
L 196.316777 217.626918 
L 198.714356 216.506783 
L 201.111935 215.64514 
L 203.432173 213.749527 
L 205.829752 212.198571 
L 208.14999 212.026242 
L 210.547569 212.112407 
L 212.945148 211.336929 
L 215.110703 210.992272 
L 217.508282 211.1646 
L 219.82852 210.302958 
L 222.226099 210.389122 
L 224.546337 210.130629 
L 229.341495 210.389122 
L 231.661733 210.647615 
L 234.059312 211.853914 
L 236.379549 212.457064 
L 238.777128 211.423093 
L 241.174707 212.543228 
L 243.417604 214.438841 
L 245.815183 214.00802 
L 248.135421 216.162126 
L 250.533 216.420618 
L 252.853238 215.300483 
L 255.250817 217.109932 
L 257.648396 217.540753 
L 259.968634 217.540753 
L 262.366213 218.143903 
L 267.084029 216.851439 
L 269.481608 217.109932 
L 271.647164 216.592947 
L 274.044743 216.334454 
L 278.76256 214.869662 
L 281.082797 215.558976 
L 283.480376 212.457064 
L 288.198193 210.647615 
L 290.595772 208.92433 
L 292.91601 206.856389 
L 295.313589 205.219268 
L 297.711168 203.323655 
L 299.876723 201.083385 
L 304.59454 198.32613 
L 306.992119 196.08586 
L 309.312357 194.621068 
L 311.709936 193.931754 
L 314.107515 192.294634 
L 316.427753 190.571349 
L 318.825332 189.882035 
L 321.14557 188.417243 
L 323.543149 186.263137 
L 325.940728 186.693958 
L 328.106283 186.607794 
L 330.503862 187.038615 
L 332.8241 187.900258 
L 335.221679 187.814094 
L 337.541917 187.469437 
L 339.939496 188.15875 
L 342.337075 188.589572 
L 344.657313 193.328604 
L 347.054892 189.882035 
L 351.772708 191.60532 
L 354.170288 191.60532 
L 356.413184 194.448739 
L 358.810763 271.996547 
L 361.131001 260.622869 
L 363.52858 237.789348 
L 365.848818 235.979899 
L 368.246397 236.669213 
L 370.643976 233.050315 
L 372.964214 232.188673 
L 375.361793 230.034567 
L 377.68203 228.655939 
L 380.079609 229.431417 
L 382.477188 227.621968 
L 384.642744 224.175399 
L 387.040323 226.932655 
L 389.360561 225.381698 
L 391.75814 222.882936 
L 394.078377 219.436366 
L 396.475956 216.765275 
L 398.873536 214.438841 
L 401.193773 211.078436 
L 403.591352 209.441316 
L 408.309169 205.650089 
L 410.706748 204.960776 
L 412.872303 200.221743 
L 415.269883 197.550652 
L 417.59012 197.550652 
L 419.987699 196.516681 
L 422.307937 194.362575 
L 424.705516 191.346827 
L 427.103095 190.485185 
L 429.423333 188.244915 
L 431.820912 187.383272 
L 434.14115 185.746152 
L 436.538729 185.315331 
L 441.101863 186.004645 
L 443.499442 186.435466 
L 445.81968 187.210944 
L 448.217259 186.090809 
L 450.537497 186.263137 
L 452.935076 185.91848 
L 455.332655 185.91848 
L 457.652893 189.278885 
L 460.050472 186.952451 
L 462.37071 185.91848 
L 464.768289 186.435466 
L 467.165868 188.072586 
L 469.408764 189.020393 
L 471.806343 189.451214 
L 474.126581 190.054364 
L 476.52416 191.174499 
L 478.844398 191.863812 
L 481.241977 194.448739 
L 483.639556 195.224217 
L 485.959794 199.618593 
L 488.357373 197.464487 
L 490.67761 199.187772 
L 493.07519 200.652564 
L 495.472769 200.5664 
L 497.638324 200.997221 
L 500.035903 201.083385 
L 502.356141 201.772699 
L 504.75372 202.80667 
L 507.073957 202.720506 
L 509.471537 204.012969 
L 511.869116 204.44379 
L 514.189353 205.219268 
L 516.586932 205.477761 
L 518.90717 205.908582 
L 521.304749 205.391597 
L 523.702328 205.305432 
L 525.867884 204.012969 
L 525.867884 204.012969 
" clip-path="url(#pc7fedc1cb6)" style="fill: none; stroke: #c9602b; stroke-width: 1.8; stroke-linecap: square"/>
   </g>
   <g id="line2d_41">
    <path d="M 46.495156 276.649416 
L 548.695156 276.649416 
" clip-path="url(#pc7fedc1cb6)" style="fill: none; stroke-dasharray: 2.96,1.28; stroke-dashoffset: 0; stroke: #6b6660; stroke-opacity: 0.6; stroke-width: 0.8"/>
   </g>
   <g id="patch_3">
    <path d="M 46.495156 289.189969 
L 46.495156 23.077969 
" style="fill: none; stroke: #d8d1bf; stroke-width: 0.8; stroke-linejoin: miter; stroke-linecap: square"/>
   </g>
   <g id="patch_4">
    <path d="M 46.495156 289.189969 
L 548.695156 289.189969 
" style="fill: none; stroke: #d8d1bf; stroke-width: 0.8; stroke-linejoin: miter; stroke-linecap: square"/>
   </g>
   <g id="text_20">
    <!-- Employment dynamics across the deep-learning era — U.S. national CES -->
    <g style="fill: #1a1a1a" transform="translate(60.736172 17.077969) scale(0.13 -0.13)">
     <defs>
      <path id="DejaVuSans-45" d="M 628 4666 
L 3578 4666 
L 3578 4134 
L 1259 4134 
L 1259 2753 
L 3481 2753 
L 3481 2222 
L 1259 2222 
L 1259 531 
L 3634 531 
L 3634 0 
L 628 0 
L 628 4666 
z
" transform="scale(0.015625)"/>
      <path id="DejaVuSans-6d" d="M 3328 2828 
Q 3544 3216 3844 3400 
Q 4144 3584 4550 3584 
Q 5097 3584 5394 3201 
Q 5691 2819 5691 2113 
L 5691 0 
L 5113 0 
L 5113 2094 
Q 5113 2597 4934 2840 
Q 4756 3084 4391 3084 
Q 3944 3084 3684 2787 
Q 3425 2491 3425 1978 
L 3425 0 
L 2847 0 
L 2847 2094 
Q 2847 2600 2669 2842 
Q 2491 3084 2119 3084 
Q 1678 3084 1418 2786 
Q 1159 2488 1159 1978 
L 1159 0 
L 581 0 
L 581 3500 
L 1159 3500 
L 1159 2956 
Q 1356 3278 1631 3431 
Q 1906 3584 2284 3584 
Q 2666 3584 2933 3390 
Q 3200 3197 3328 2828 
z
" transform="scale(0.015625)"/>
      <path id="DejaVuSans-70" d="M 1159 525 
L 1159 -1331 
L 581 -1331 
L 581 3500 
L 1159 3500 
L 1159 2969 
Q 1341 3281 1617 3432 
Q 1894 3584 2278 3584 
Q 2916 3584 3314 3078 
Q 3713 2572 3713 1747 
Q 3713 922 3314 415 
Q 2916 -91 2278 -91 
Q 1894 -91 1617 61 
Q 1341 213 1159 525 
z
M 3116 1747 
Q 3116 2381 2855 2742 
Q 2594 3103 2138 3103 
Q 1681 3103 1420 2742 
Q 1159 2381 1159 1747 
Q 1159 1113 1420 752 
Q 1681 391 2138 391 
Q 2594 391 2855 752 
Q 3116 1113 3116 1747 
z
" transform="scale(0.015625)"/>
      <path id="DejaVuSans-6c" d="M 603 4863 
L 1178 4863 
L 1178 0 
L 603 0 
L 603 4863 
z
" transform="scale(0.015625)"/>
      <path id="DejaVuSans-6f" d="M 1959 3097 
Q 1497 3097 1228 2736 
Q 959 2375 959 1747 
Q 959 1119 1226 758 
Q 1494 397 1959 397 
Q 2419 397 2687 759 
Q 2956 1122 2956 1747 
Q 2956 2369 2687 2733 
Q 2419 3097 1959 3097 
z
M 1959 3584 
Q 2709 3584 3137 3096 
Q 3566 2609 3566 1747 
Q 3566 888 3137 398 
Q 2709 -91 1959 -91 
Q 1206 -91 779 398 
Q 353 888 353 1747 
Q 353 2609 779 3096 
Q 1206 3584 1959 3584 
z
" transform="scale(0.015625)"/>
      <path id="DejaVuSans-79" d="M 2059 -325 
Q 1816 -950 1584 -1140 
Q 1353 -1331 966 -1331 
L 506 -1331 
L 506 -850 
L 844 -850 
Q 1081 -850 1212 -737 
Q 1344 -625 1503 -206 
L 1606 56 
L 191 3500 
L 800 3500 
L 1894 763 
L 2988 3500 
L 3597 3500 
L 2059 -325 
z
" transform="scale(0.015625)"/>
      <path id="DejaVuSans-74" d="M 1172 4494 
L 1172 3500 
L 2356 3500 
L 2356 3053 
L 1172 3053 
L 1172 1153 
Q 1172 725 1289 603 
Q 1406 481 1766 481 
L 2356 481 
L 2356 0 
L 1766 0 
Q 1100 0 847 248 
Q 594 497 594 1153 
L 594 3053 
L 172 3053 
L 172 3500 
L 594 3500 
L 594 4494 
L 1172 4494 
z
" transform="scale(0.015625)"/>
      <path id="DejaVuSans-69" d="M 603 3500 
L 1178 3500 
L 1178 0 
L 603 0 
L 603 3500 
z
M 603 4863 
L 1178 4863 
L 1178 4134 
L 603 4134 
L 603 4863 
z
" transform="scale(0.015625)"/>
      <path id="DejaVuSans-63" d="M 3122 3366 
L 3122 2828 
Q 2878 2963 2633 3030 
Q 2388 3097 2138 3097 
Q 1578 3097 1268 2742 
Q 959 2388 959 1747 
Q 959 1106 1268 751 
Q 1578 397 2138 397 
Q 2388 397 2633 464 
Q 2878 531 3122 666 
L 3122 134 
Q 2881 22 2623 -34 
Q 2366 -91 2075 -91 
Q 1284 -91 818 406 
Q 353 903 353 1747 
Q 353 2603 823 3093 
Q 1294 3584 2113 3584 
Q 2378 3584 2631 3529 
Q 2884 3475 3122 3366 
z
" transform="scale(0.015625)"/>
      <path id="DejaVuSans-73" d="M 2834 3397 
L 2834 2853 
Q 2591 2978 2328 3040 
Q 2066 3103 1784 3103 
Q 1356 3103 1142 2972 
Q 928 2841 928 2578 
Q 928 2378 1081 2264 
Q 1234 2150 1697 2047 
L 1894 2003 
Q 2506 1872 2764 1633 
Q 3022 1394 3022 966 
Q 3022 478 2636 193 
Q 2250 -91 1575 -91 
Q 1294 -91 989 -36 
Q 684 19 347 128 
L 347 722 
Q 666 556 975 473 
Q 1284 391 1588 391 
Q 1994 391 2212 530 
Q 2431 669 2431 922 
Q 2431 1156 2273 1281 
Q 2116 1406 1581 1522 
L 1381 1569 
Q 847 1681 609 1914 
Q 372 2147 372 2553 
Q 372 3047 722 3315 
Q 1072 3584 1716 3584 
Q 2034 3584 2315 3537 
Q 2597 3491 2834 3397 
z
" transform="scale(0.015625)"/>
      <path id="DejaVuSans-72" d="M 2631 2963 
Q 2534 3019 2420 3045 
Q 2306 3072 2169 3072 
Q 1681 3072 1420 2755 
Q 1159 2438 1159 1844 
L 1159 0 
L 581 0 
L 581 3500 
L 1159 3500 
L 1159 2956 
Q 1341 3275 1631 3429 
Q 1922 3584 2338 3584 
Q 2397 3584 2469 3576 
Q 2541 3569 2628 3553 
L 2631 2963 
z
" transform="scale(0.015625)"/>
      <path id="DejaVuSans-68" d="M 3513 2113 
L 3513 0 
L 2938 0 
L 2938 2094 
Q 2938 2591 2744 2837 
Q 2550 3084 2163 3084 
Q 1697 3084 1428 2787 
Q 1159 2491 1159 1978 
L 1159 0 
L 581 0 
L 581 4863 
L 1159 4863 
L 1159 2956 
Q 1366 3272 1645 3428 
Q 1925 3584 2291 3584 
Q 2894 3584 3203 3211 
Q 3513 2838 3513 2113 
z
" transform="scale(0.015625)"/>
      <path id="DejaVuSans-2d" d="M 313 2009 
L 1997 2009 
L 1997 1497 
L 313 1497 
L 313 2009 
z
" transform="scale(0.015625)"/>
      <path id="DejaVuSans-67" d="M 2906 1791 
Q 2906 2416 2648 2759 
Q 2391 3103 1925 3103 
Q 1463 3103 1205 2759 
Q 947 2416 947 1791 
Q 947 1169 1205 825 
Q 1463 481 1925 481 
Q 2391 481 2648 825 
Q 2906 1169 2906 1791 
z
M 3481 434 
Q 3481 -459 3084 -895 
Q 2688 -1331 1869 -1331 
Q 1566 -1331 1297 -1286 
Q 1028 -1241 775 -1147 
L 775 -588 
Q 1028 -725 1275 -790 
Q 1522 -856 1778 -856 
Q 2344 -856 2625 -561 
Q 2906 -266 2906 331 
L 2906 616 
Q 2728 306 2450 153 
Q 2172 0 1784 0 
Q 1141 0 747 490 
Q 353 981 353 1791 
Q 353 2603 747 3093 
Q 1141 3584 1784 3584 
Q 2172 3584 2450 3431 
Q 2728 3278 2906 2969 
L 2906 3500 
L 3481 3500 
L 3481 434 
z
" transform="scale(0.015625)"/>
      <path id="DejaVuSans-2014" d="M 313 1978 
L 6088 1978 
L 6088 1528 
L 313 1528 
L 313 1978 
z
" transform="scale(0.015625)"/>
      <path id="DejaVuSans-55" d="M 556 4666 
L 1191 4666 
L 1191 1831 
Q 1191 1081 1462 751 
Q 1734 422 2344 422 
Q 2950 422 3222 751 
Q 3494 1081 3494 1831 
L 3494 4666 
L 4128 4666 
L 4128 1753 
Q 4128 841 3676 375 
Q 3225 -91 2344 -91 
Q 1459 -91 1007 375 
Q 556 841 556 1753 
L 556 4666 
z
" transform="scale(0.015625)"/>
      <path id="DejaVuSans-2e" d="M 684 794 
L 1344 794 
L 1344 0 
L 684 0 
L 684 794 
z
" transform="scale(0.015625)"/>
      <path id="DejaVuSans-53" d="M 3425 4513 
L 3425 3897 
Q 3066 4069 2747 4153 
Q 2428 4238 2131 4238 
Q 1616 4238 1336 4038 
Q 1056 3838 1056 3469 
Q 1056 3159 1242 3001 
Q 1428 2844 1947 2747 
L 2328 2669 
Q 3034 2534 3370 2195 
Q 3706 1856 3706 1288 
Q 3706 609 3251 259 
Q 2797 -91 1919 -91 
Q 1588 -91 1214 -16 
Q 841 59 441 206 
L 441 856 
Q 825 641 1194 531 
Q 1563 422 1919 422 
Q 2459 422 2753 634 
Q 3047 847 3047 1241 
Q 3047 1584 2836 1778 
Q 2625 1972 2144 2069 
L 1759 2144 
Q 1053 2284 737 2584 
Q 422 2884 422 3419 
Q 422 4038 858 4394 
Q 1294 4750 2059 4750 
Q 2388 4750 2728 4690 
Q 3069 4631 3425 4513 
z
" transform="scale(0.015625)"/>
      <path id="DejaVuSans-43" d="M 4122 4306 
L 4122 3641 
Q 3803 3938 3442 4084 
Q 3081 4231 2675 4231 
Q 1875 4231 1450 3742 
Q 1025 3253 1025 2328 
Q 1025 1406 1450 917 
Q 1875 428 2675 428 
Q 3081 428 3442 575 
Q 3803 722 4122 1019 
L 4122 359 
Q 3791 134 3420 21 
Q 3050 -91 2638 -91 
Q 1578 -91 968 557 
Q 359 1206 359 2328 
Q 359 3453 968 4101 
Q 1578 4750 2638 4750 
Q 3056 4750 3426 4639 
Q 3797 4528 4122 4306 
z
" transform="scale(0.015625)"/>
     </defs>
     <use xlink:href="#DejaVuSans-45"/>
     <use xlink:href="#DejaVuSans-6d" transform="translate(63.183594 0)"/>
     <use xlink:href="#DejaVuSans-70" transform="translate(160.595703 0)"/>
     <use xlink:href="#DejaVuSans-6c" transform="translate(224.072266 0)"/>
     <use xlink:href="#DejaVuSans-6f" transform="translate(251.855469 0)"/>
     <use xlink:href="#DejaVuSans-79" transform="translate(313.037109 0)"/>
     <use xlink:href="#DejaVuSans-6d" transform="translate(372.216797 0)"/>
     <use xlink:href="#DejaVuSans-65" transform="translate(469.628906 0)"/>
     <use xlink:href="#DejaVuSans-6e" transform="translate(531.152344 0)"/>
     <use xlink:href="#DejaVuSans-74" transform="translate(594.53125 0)"/>
     <use xlink:href="#DejaVuSans-20" transform="translate(633.740234 0)"/>
     <use xlink:href="#DejaVuSans-64" transform="translate(665.527344 0)"/>
     <use xlink:href="#DejaVuSans-79" transform="translate(729.003906 0)"/>
     <use xlink:href="#DejaVuSans-6e" transform="translate(788.183594 0)"/>
     <use xlink:href="#DejaVuSans-61" transform="translate(851.5625 0)"/>
     <use xlink:href="#DejaVuSans-6d" transform="translate(912.841797 0)"/>
     <use xlink:href="#DejaVuSans-69" transform="translate(1010.253906 0)"/>
     <use xlink:href="#DejaVuSans-63" transform="translate(1038.037109 0)"/>
     <use xlink:href="#DejaVuSans-73" transform="translate(1093.017578 0)"/>
     <use xlink:href="#DejaVuSans-20" transform="translate(1145.117188 0)"/>
     <use xlink:href="#DejaVuSans-61" transform="translate(1176.904297 0)"/>
     <use xlink:href="#DejaVuSans-63" transform="translate(1238.183594 0)"/>
     <use xlink:href="#DejaVuSans-72" transform="translate(1293.164062 0)"/>
     <use xlink:href="#DejaVuSans-6f" transform="translate(1332.027344 0)"/>
     <use xlink:href="#DejaVuSans-73" transform="translate(1393.208984 0)"/>
     <use xlink:href="#DejaVuSans-73" transform="translate(1445.308594 0)"/>
     <use xlink:href="#DejaVuSans-20" transform="translate(1497.408203 0)"/>
     <use xlink:href="#DejaVuSans-74" transform="translate(1529.195312 0)"/>
     <use xlink:href="#DejaVuSans-68" transform="translate(1568.404297 0)"/>
     <use xlink:href="#DejaVuSans-65" transform="translate(1631.783203 0)"/>
     <use xlink:href="#DejaVuSans-20" transform="translate(1693.306641 0)"/>
     <use xlink:href="#DejaVuSans-64" transform="translate(1725.09375 0)"/>
     <use xlink:href="#DejaVuSans-65" transform="translate(1788.570312 0)"/>
     <use xlink:href="#DejaVuSans-65" transform="translate(1850.09375 0)"/>
     <use xlink:href="#DejaVuSans-70" transform="translate(1911.617188 0)"/>
     <use xlink:href="#DejaVuSans-2d" transform="translate(1975.09375 0)"/>
     <use xlink:href="#DejaVuSans-6c" transform="translate(2011.177734 0)"/>
     <use xlink:href="#DejaVuSans-65" transform="translate(2038.960938 0)"/>
     <use xlink:href="#DejaVuSans-61" transform="translate(2100.484375 0)"/>
     <use xlink:href="#DejaVuSans-72" transform="translate(2161.763672 0)"/>
     <use xlink:href="#DejaVuSans-6e" transform="translate(2201.126953 0)"/>
     <use xlink:href="#DejaVuSans-69" transform="translate(2264.505859 0)"/>
     <use xlink:href="#DejaVuSans-6e" transform="translate(2292.289062 0)"/>
     <use xlink:href="#DejaVuSans-67" transform="translate(2355.667969 0)"/>
     <use xlink:href="#DejaVuSans-20" transform="translate(2419.144531 0)"/>
     <use xlink:href="#DejaVuSans-65" transform="translate(2450.931641 0)"/>
     <use xlink:href="#DejaVuSans-72" transform="translate(2512.455078 0)"/>
     <use xlink:href="#DejaVuSans-61" transform="translate(2553.568359 0)"/>
     <use xlink:href="#DejaVuSans-20" transform="translate(2614.847656 0)"/>
     <use xlink:href="#DejaVuSans-2014" transform="translate(2646.634766 0)"/>
     <use xlink:href="#DejaVuSans-20" transform="translate(2746.634766 0)"/>
     <use xlink:href="#DejaVuSans-55" transform="translate(2778.421875 0)"/>
     <use xlink:href="#DejaVuSans-2e" transform="translate(2851.615234 0)"/>
     <use xlink:href="#DejaVuSans-53" transform="translate(2883.402344 0)"/>
     <use xlink:href="#DejaVuSans-2e" transform="translate(2946.878906 0)"/>
     <use xlink:href="#DejaVuSans-20" transform="translate(2978.666016 0)"/>
     <use xlink:href="#DejaVuSans-6e" transform="translate(3010.453125 0)"/>
     <use xlink:href="#DejaVuSans-61" transform="translate(3073.832031 0)"/>
     <use xlink:href="#DejaVuSans-74" transform="translate(3135.111328 0)"/>
     <use xlink:href="#DejaVuSans-69" transform="translate(3174.320312 0)"/>
     <use xlink:href="#DejaVuSans-6f" transform="translate(3202.103516 0)"/>
     <use xlink:href="#DejaVuSans-6e" transform="translate(3263.285156 0)"/>
     <use xlink:href="#DejaVuSans-61" transform="translate(3326.664062 0)"/>
     <use xlink:href="#DejaVuSans-6c" transform="translate(3387.943359 0)"/>
     <use xlink:href="#DejaVuSans-20" transform="translate(3415.726562 0)"/>
     <use xlink:href="#DejaVuSans-43" transform="translate(3447.513672 0)"/>
     <use xlink:href="#DejaVuSans-45" transform="translate(3517.337891 0)"/>
     <use xlink:href="#DejaVuSans-53" transform="translate(3580.521484 0)"/>
    </g>
   </g>
   <g id="legend_1">
    <g id="line2d_42">
     <path d="M 55.045156 35.521484 
L 64.545156 35.521484 
L 74.045156 35.521484 
" style="fill: none; stroke: #1a1a1a; stroke-width: 1.8; stroke-linecap: square"/>
    </g>
    <g id="text_21">
     <!-- Total nonfarm -->
     <g transform="translate(81.645156 38.846484) scale(0.095 -0.095)">
      <defs>
       <path id="DejaVuSans-54" d="M -19 4666 
L 3928 4666 
L 3928 4134 
L 2272 4134 
L 2272 0 
L 1638 0 
L 1638 4134 
L -19 4134 
L -19 4666 
z
" transform="scale(0.015625)"/>
       <path id="DejaVuSans-66" d="M 2375 4863 
L 2375 4384 
L 1825 4384 
Q 1516 4384 1395 4259 
Q 1275 4134 1275 3809 
L 1275 3500 
L 2222 3500 
L 2222 3053 
L 1275 3053 
L 1275 0 
L 697 0 
L 697 3053 
L 147 3053 
L 147 3500 
L 697 3500 
L 697 3744 
Q 697 4328 969 4595 
Q 1241 4863 1831 4863 
L 2375 4863 
z
" transform="scale(0.015625)"/>
      </defs>
      <use xlink:href="#DejaVuSans-54"/>
      <use xlink:href="#DejaVuSans-6f" transform="translate(44.083984 0)"/>
      <use xlink:href="#DejaVuSans-74" transform="translate(105.265625 0)"/>
      <use xlink:href="#DejaVuSans-61" transform="translate(144.474609 0)"/>
      <use xlink:href="#DejaVuSans-6c" transform="translate(205.753906 0)"/>
      <use xlink:href="#DejaVuSans-20" transform="translate(233.537109 0)"/>
      <use xlink:href="#DejaVuSans-6e" transform="translate(265.324219 0)"/>
      <use xlink:href="#DejaVuSans-6f" transform="translate(328.703125 0)"/>
      <use xlink:href="#DejaVuSans-6e" transform="translate(389.884766 0)"/>
      <use xlink:href="#DejaVuSans-66" transform="translate(453.263672 0)"/>
      <use xlink:href="#DejaVuSans-61" transform="translate(488.46875 0)"/>
      <use xlink:href="#DejaVuSans-72" transform="translate(549.748047 0)"/>
      <use xlink:href="#DejaVuSans-6d" transform="translate(589.111328 0)"/>
     </g>
    </g>
    <g id="line2d_43">
     <path d="M 55.045156 49.465703 
L 64.545156 49.465703 
L 74.045156 49.465703 
" style="fill: none; stroke: #1f5fa6; stroke-width: 1.8; stroke-linecap: square"/>
    </g>
    <g id="text_22">
     <!-- Professional &amp; business services -->
     <g transform="translate(81.645156 52.790703) scale(0.095 -0.095)">
      <defs>
       <path id="DejaVuSans-50" d="M 1259 4147 
L 1259 2394 
L 2053 2394 
Q 2494 2394 2734 2622 
Q 2975 2850 2975 3272 
Q 2975 3691 2734 3919 
Q 2494 4147 2053 4147 
L 1259 4147 
z
M 628 4666 
L 2053 4666 
Q 2838 4666 3239 4311 
Q 3641 3956 3641 3272 
Q 3641 2581 3239 2228 
Q 2838 1875 2053 1875 
L 1259 1875 
L 1259 0 
L 628 0 
L 628 4666 
z
" transform="scale(0.015625)"/>
       <path id="DejaVuSans-26" d="M 1556 2509 
Q 1272 2256 1139 2004 
Q 1006 1753 1006 1478 
Q 1006 1022 1337 719 
Q 1669 416 2169 416 
Q 2466 416 2725 514 
Q 2984 613 3213 813 
L 1556 2509 
z
M 1997 2859 
L 3584 1234 
Q 3769 1513 3872 1830 
Q 3975 2147 3994 2503 
L 4575 2503 
Q 4538 2091 4375 1687 
Q 4213 1284 3922 891 
L 4794 0 
L 4006 0 
L 3559 459 
Q 3234 181 2878 45 
Q 2522 -91 2113 -91 
Q 1359 -91 881 339 
Q 403 769 403 1441 
Q 403 1841 612 2192 
Q 822 2544 1241 2853 
Q 1091 3050 1012 3245 
Q 934 3441 934 3628 
Q 934 4134 1281 4442 
Q 1628 4750 2203 4750 
Q 2463 4750 2720 4694 
Q 2978 4638 3244 4525 
L 3244 3956 
Q 2972 4103 2725 4179 
Q 2478 4256 2266 4256 
Q 1938 4256 1733 4082 
Q 1528 3909 1528 3634 
Q 1528 3475 1620 3314 
Q 1713 3153 1997 2859 
z
" transform="scale(0.015625)"/>
       <path id="DejaVuSans-62" d="M 3116 1747 
Q 3116 2381 2855 2742 
Q 2594 3103 2138 3103 
Q 1681 3103 1420 2742 
Q 1159 2381 1159 1747 
Q 1159 1113 1420 752 
Q 1681 391 2138 391 
Q 2594 391 2855 752 
Q 3116 1113 3116 1747 
z
M 1159 2969 
Q 1341 3281 1617 3432 
Q 1894 3584 2278 3584 
Q 2916 3584 3314 3078 
Q 3713 2572 3713 1747 
Q 3713 922 3314 415 
Q 2916 -91 2278 -91 
Q 1894 -91 1617 61 
Q 1341 213 1159 525 
L 1159 0 
L 581 0 
L 581 4863 
L 1159 4863 
L 1159 2969 
z
" transform="scale(0.015625)"/>
       <path id="DejaVuSans-75" d="M 544 1381 
L 544 3500 
L 1119 3500 
L 1119 1403 
Q 1119 906 1312 657 
Q 1506 409 1894 409 
Q 2359 409 2629 706 
Q 2900 1003 2900 1516 
L 2900 3500 
L 3475 3500 
L 3475 0 
L 2900 0 
L 2900 538 
Q 2691 219 2414 64 
Q 2138 -91 1772 -91 
Q 1169 -91 856 284 
Q 544 659 544 1381 
z
M 1991 3584 
L 1991 3584 
z
" transform="scale(0.015625)"/>
       <path id="DejaVuSans-76" d="M 191 3500 
L 800 3500 
L 1894 563 
L 2988 3500 
L 3597 3500 
L 2284 0 
L 1503 0 
L 191 3500 
z
" transform="scale(0.015625)"/>
      </defs>
      <use xlink:href="#DejaVuSans-50"/>
      <use xlink:href="#DejaVuSans-72" transform="translate(58.552734 0)"/>
      <use xlink:href="#DejaVuSans-6f" transform="translate(97.416016 0)"/>
      <use xlink:href="#DejaVuSans-66" transform="translate(158.597656 0)"/>
      <use xlink:href="#DejaVuSans-65" transform="translate(193.802734 0)"/>
      <use xlink:href="#DejaVuSans-73" transform="translate(255.326172 0)"/>
      <use xlink:href="#DejaVuSans-73" transform="translate(307.425781 0)"/>
      <use xlink:href="#DejaVuSans-69" transform="translate(359.525391 0)"/>
      <use xlink:href="#DejaVuSans-6f" transform="translate(387.308594 0)"/>
      <use xlink:href="#DejaVuSans-6e" transform="translate(448.490234 0)"/>
      <use xlink:href="#DejaVuSans-61" transform="translate(511.869141 0)"/>
      <use xlink:href="#DejaVuSans-6c" transform="translate(573.148438 0)"/>
      <use xlink:href="#DejaVuSans-20" transform="translate(600.931641 0)"/>
      <use xlink:href="#DejaVuSans-26" transform="translate(632.71875 0)"/>
      <use xlink:href="#DejaVuSans-20" transform="translate(710.697266 0)"/>
      <use xlink:href="#DejaVuSans-62" transform="translate(742.484375 0)"/>
      <use xlink:href="#DejaVuSans-75" transform="translate(805.960938 0)"/>
      <use xlink:href="#DejaVuSans-73" transform="translate(869.339844 0)"/>
      <use xlink:href="#DejaVuSans-69" transform="translate(921.439453 0)"/>
      <use xlink:href="#DejaVuSans-6e" transform="translate(949.222656 0)"/>
      <use xlink:href="#DejaVuSans-65" transform="translate(1012.601562 0)"/>
      <use xlink:href="#DejaVuSans-73" transform="translate(1074.125 0)"/>
      <use xlink:href="#DejaVuSans-73" transform="translate(1126.224609 0)"/>
      <use xlink:href="#DejaVuSans-20" transform="translate(1178.324219 0)"/>
      <use xlink:href="#DejaVuSans-73" transform="translate(1210.111328 0)"/>
      <use xlink:href="#DejaVuSans-65" transform="translate(1262.210938 0)"/>
      <use xlink:href="#DejaVuSans-72" transform="translate(1323.734375 0)"/>
      <use xlink:href="#DejaVuSans-76" transform="translate(1364.847656 0)"/>
      <use xlink:href="#DejaVuSans-69" transform="translate(1424.027344 0)"/>
      <use xlink:href="#DejaVuSans-63" transform="translate(1451.810547 0)"/>
      <use xlink:href="#DejaVuSans-65" transform="translate(1506.791016 0)"/>
      <use xlink:href="#DejaVuSans-73" transform="translate(1568.314453 0)"/>
     </g>
    </g>
    <g id="line2d_44">
     <path d="M 254.582266 35.521484 
L 264.082266 35.521484 
L 273.582266 35.521484 
" style="fill: none; stroke: #2c8a57; stroke-width: 1.8; stroke-linecap: square"/>
    </g>
    <g id="text_23">
     <!-- Education &amp; health services -->
     <g transform="translate(281.182266 38.846484) scale(0.095 -0.095)">
      <use xlink:href="#DejaVuSans-45"/>
      <use xlink:href="#DejaVuSans-64" transform="translate(63.183594 0)"/>
      <use xlink:href="#DejaVuSans-75" transform="translate(126.660156 0)"/>
      <use xlink:href="#DejaVuSans-63" transform="translate(190.039062 0)"/>
      <use xlink:href="#DejaVuSans-61" transform="translate(245.019531 0)"/>
      <use xlink:href="#DejaVuSans-74" transform="translate(306.298828 0)"/>
      <use xlink:href="#DejaVuSans-69" transform="translate(345.507812 0)"/>
      <use xlink:href="#DejaVuSans-6f" transform="translate(373.291016 0)"/>
      <use xlink:href="#DejaVuSans-6e" transform="translate(434.472656 0)"/>
      <use xlink:href="#DejaVuSans-20" transform="translate(497.851562 0)"/>
      <use xlink:href="#DejaVuSans-26" transform="translate(529.638672 0)"/>
      <use xlink:href="#DejaVuSans-20" transform="translate(607.617188 0)"/>
      <use xlink:href="#DejaVuSans-68" transform="translate(639.404297 0)"/>
      <use xlink:href="#DejaVuSans-65" transform="translate(702.783203 0)"/>
      <use xlink:href="#DejaVuSans-61" transform="translate(764.306641 0)"/>
      <use xlink:href="#DejaVuSans-6c" transform="translate(825.585938 0)"/>
      <use xlink:href="#DejaVuSans-74" transform="translate(853.369141 0)"/>
      <use xlink:href="#DejaVuSans-68" transform="translate(892.578125 0)"/>
      <use xlink:href="#DejaVuSans-20" transform="translate(955.957031 0)"/>
      <use xlink:href="#DejaVuSans-73" transform="translate(987.744141 0)"/>
      <use xlink:href="#DejaVuSans-65" transform="translate(1039.84375 0)"/>
      <use xlink:href="#DejaVuSans-72" transform="translate(1101.367188 0)"/>
      <use xlink:href="#DejaVuSans-76" transform="translate(1142.480469 0)"/>
      <use xlink:href="#DejaVuSans-69" transform="translate(1201.660156 0)"/>
      <use xlink:href="#DejaVuSans-63" transform="translate(1229.443359 0)"/>
      <use xlink:href="#DejaVuSans-65" transform="translate(1284.423828 0)"/>
      <use xlink:href="#DejaVuSans-73" transform="translate(1345.947266 0)"/>
     </g>
    </g>
    <g id="line2d_45">
     <path d="M 254.582266 49.465703 
L 264.082266 49.465703 
L 273.582266 49.465703 
" style="fill: none; stroke: #c9602b; stroke-width: 1.8; stroke-linecap: square"/>
    </g>
    <g id="text_24">
     <!-- Manufacturing -->
     <g transform="translate(281.182266 52.790703) scale(0.095 -0.095)">
      <defs>
       <path id="DejaVuSans-4d" d="M 628 4666 
L 1569 4666 
L 2759 1491 
L 3956 4666 
L 4897 4666 
L 4897 0 
L 4281 0 
L 4281 4097 
L 3078 897 
L 2444 897 
L 1241 4097 
L 1241 0 
L 628 0 
L 628 4666 
z
" transform="scale(0.015625)"/>
      </defs>
      <use xlink:href="#DejaVuSans-4d"/>
      <use xlink:href="#DejaVuSans-61" transform="translate(86.279297 0)"/>
      <use xlink:href="#DejaVuSans-6e" transform="translate(147.558594 0)"/>
      <use xlink:href="#DejaVuSans-75" transform="translate(210.9375 0)"/>
      <use xlink:href="#DejaVuSans-66" transform="translate(274.316406 0)"/>
      <use xlink:href="#DejaVuSans-61" transform="translate(309.521484 0)"/>
      <use xlink:href="#DejaVuSans-63" transform="translate(370.800781 0)"/>
      <use xlink:href="#DejaVuSans-74" transform="translate(425.78125 0)"/>
      <use xlink:href="#DejaVuSans-75" transform="translate(464.990234 0)"/>
      <use xlink:href="#DejaVuSans-72" transform="translate(528.369141 0)"/>
      <use xlink:href="#DejaVuSans-69" transform="translate(569.482422 0)"/>
      <use xlink:href="#DejaVuSans-6e" transform="translate(597.265625 0)"/>
      <use xlink:href="#DejaVuSans-67" transform="translate(660.644531 0)"/>
     </g>
    </g>
   </g>
  </g>
 </g>
 <defs>
  <clipPath id="pc7fedc1cb6">
   <rect x="46.495156" y="23.077969" width="502.2" height="266.112"/>
  </clipPath>
 </defs>
</svg>
